<mxfile host="app.diagrams.net" modified="2024-05-09T08:44:18.175Z" agent="Mozilla/5.0 (Windows NT 10.0; Win64; x64) AppleWebKit/537.36 (KHTML, like Gecko) Chrome/124.0.0.0 Safari/537.36" etag="LQbwLb1UQVAz6jh9c0DI" version="24.3.0" type="device">
  <diagram name="페이지-1" id="UGvaJNc50OQZFntBcd7y">
    <mxGraphModel dx="3287" dy="1318" grid="0" gridSize="10" guides="1" tooltips="1" connect="1" arrows="1" fold="1" page="0" pageScale="1" pageWidth="827" pageHeight="1169" math="0" shadow="0">
      <root>
        <mxCell id="0" />
        <mxCell id="1" parent="0" />
        <mxCell id="nQdse4MKbOwxIWMAxmM3-208" value="" style="rounded=0;whiteSpace=wrap;html=1;dashed=1;" vertex="1" parent="1">
          <mxGeometry x="-1304" y="642" width="390" height="232" as="geometry" />
        </mxCell>
        <mxCell id="nQdse4MKbOwxIWMAxmM3-209" value="작업 후순위" style="text;strokeColor=none;fillColor=none;align=left;verticalAlign=middle;spacingLeft=4;spacingRight=4;overflow=hidden;points=[[0,0.5],[1,0.5]];portConstraint=eastwest;rotatable=0;whiteSpace=wrap;html=1;" vertex="1" parent="1">
          <mxGeometry x="-1257" y="816" width="80" height="30" as="geometry" />
        </mxCell>
        <mxCell id="nQdse4MKbOwxIWMAxmM3-147" value="" style="rounded=0;whiteSpace=wrap;html=1;dashed=1;" vertex="1" parent="1">
          <mxGeometry x="-9" y="816" width="358" height="203" as="geometry" />
        </mxCell>
        <mxCell id="nQdse4MKbOwxIWMAxmM3-55" value="" style="edgeStyle=orthogonalEdgeStyle;rounded=0;orthogonalLoop=1;jettySize=auto;html=1;" edge="1" parent="1" source="nQdse4MKbOwxIWMAxmM3-1" target="nQdse4MKbOwxIWMAxmM3-54">
          <mxGeometry relative="1" as="geometry" />
        </mxCell>
        <mxCell id="nQdse4MKbOwxIWMAxmM3-60" style="edgeStyle=orthogonalEdgeStyle;rounded=0;orthogonalLoop=1;jettySize=auto;html=1;" edge="1" parent="1" source="nQdse4MKbOwxIWMAxmM3-1" target="nQdse4MKbOwxIWMAxmM3-58">
          <mxGeometry relative="1" as="geometry">
            <Array as="points">
              <mxPoint x="-190" y="30" />
            </Array>
          </mxGeometry>
        </mxCell>
        <mxCell id="nQdse4MKbOwxIWMAxmM3-68" value="" style="edgeStyle=orthogonalEdgeStyle;rounded=0;orthogonalLoop=1;jettySize=auto;html=1;" edge="1" parent="1" source="nQdse4MKbOwxIWMAxmM3-1" target="nQdse4MKbOwxIWMAxmM3-67">
          <mxGeometry relative="1" as="geometry" />
        </mxCell>
        <mxCell id="nQdse4MKbOwxIWMAxmM3-96" value="" style="edgeStyle=orthogonalEdgeStyle;rounded=0;orthogonalLoop=1;jettySize=auto;html=1;" edge="1" parent="1" source="nQdse4MKbOwxIWMAxmM3-1" target="nQdse4MKbOwxIWMAxmM3-95">
          <mxGeometry relative="1" as="geometry">
            <Array as="points">
              <mxPoint x="-134" y="179" />
              <mxPoint x="-134" y="-66" />
            </Array>
          </mxGeometry>
        </mxCell>
        <mxCell id="nQdse4MKbOwxIWMAxmM3-114" style="edgeStyle=orthogonalEdgeStyle;rounded=0;orthogonalLoop=1;jettySize=auto;html=1;exitX=0.5;exitY=1;exitDx=0;exitDy=0;" edge="1" parent="1" source="nQdse4MKbOwxIWMAxmM3-1" target="nQdse4MKbOwxIWMAxmM3-111">
          <mxGeometry relative="1" as="geometry" />
        </mxCell>
        <mxCell id="nQdse4MKbOwxIWMAxmM3-117" value="" style="edgeStyle=orthogonalEdgeStyle;rounded=0;orthogonalLoop=1;jettySize=auto;html=1;" edge="1" parent="1" source="nQdse4MKbOwxIWMAxmM3-1" target="nQdse4MKbOwxIWMAxmM3-116">
          <mxGeometry relative="1" as="geometry" />
        </mxCell>
        <mxCell id="nQdse4MKbOwxIWMAxmM3-1" value="캐릭터(플레이어)" style="ellipse;whiteSpace=wrap;html=1;" vertex="1" parent="1">
          <mxGeometry x="-294" y="139" width="120" height="80" as="geometry" />
        </mxCell>
        <mxCell id="nQdse4MKbOwxIWMAxmM3-6" value="" style="edgeStyle=orthogonalEdgeStyle;rounded=0;orthogonalLoop=1;jettySize=auto;html=1;" edge="1" parent="1" source="nQdse4MKbOwxIWMAxmM3-3" target="nQdse4MKbOwxIWMAxmM3-5">
          <mxGeometry relative="1" as="geometry" />
        </mxCell>
        <mxCell id="nQdse4MKbOwxIWMAxmM3-35" value="" style="edgeStyle=orthogonalEdgeStyle;rounded=0;orthogonalLoop=1;jettySize=auto;html=1;" edge="1" parent="1" source="nQdse4MKbOwxIWMAxmM3-3" target="nQdse4MKbOwxIWMAxmM3-34">
          <mxGeometry relative="1" as="geometry" />
        </mxCell>
        <mxCell id="nQdse4MKbOwxIWMAxmM3-120" value="" style="edgeStyle=orthogonalEdgeStyle;rounded=0;orthogonalLoop=1;jettySize=auto;html=1;" edge="1" parent="1" source="nQdse4MKbOwxIWMAxmM3-3" target="nQdse4MKbOwxIWMAxmM3-4">
          <mxGeometry relative="1" as="geometry" />
        </mxCell>
        <mxCell id="nQdse4MKbOwxIWMAxmM3-3" value="적" style="ellipse;whiteSpace=wrap;html=1;" vertex="1" parent="1">
          <mxGeometry x="-134" y="374" width="120" height="80" as="geometry" />
        </mxCell>
        <mxCell id="nQdse4MKbOwxIWMAxmM3-105" value="" style="edgeStyle=orthogonalEdgeStyle;rounded=0;orthogonalLoop=1;jettySize=auto;html=1;" edge="1" parent="1" source="nQdse4MKbOwxIWMAxmM3-4" target="nQdse4MKbOwxIWMAxmM3-104">
          <mxGeometry relative="1" as="geometry" />
        </mxCell>
        <mxCell id="nQdse4MKbOwxIWMAxmM3-128" value="" style="edgeStyle=orthogonalEdgeStyle;rounded=0;orthogonalLoop=1;jettySize=auto;html=1;" edge="1" parent="1" source="nQdse4MKbOwxIWMAxmM3-4" target="nQdse4MKbOwxIWMAxmM3-127">
          <mxGeometry relative="1" as="geometry" />
        </mxCell>
        <mxCell id="nQdse4MKbOwxIWMAxmM3-4" value="시스템" style="ellipse;whiteSpace=wrap;html=1;" vertex="1" parent="1">
          <mxGeometry x="-228" y="249" width="120" height="80" as="geometry" />
        </mxCell>
        <mxCell id="nQdse4MKbOwxIWMAxmM3-8" value="" style="edgeStyle=orthogonalEdgeStyle;rounded=0;orthogonalLoop=1;jettySize=auto;html=1;" edge="1" parent="1" source="nQdse4MKbOwxIWMAxmM3-5" target="nQdse4MKbOwxIWMAxmM3-7">
          <mxGeometry relative="1" as="geometry" />
        </mxCell>
        <mxCell id="nQdse4MKbOwxIWMAxmM3-5" value="탐색 시스템" style="whiteSpace=wrap;html=1;" vertex="1" parent="1">
          <mxGeometry x="-134" y="484" width="120" height="36" as="geometry" />
        </mxCell>
        <mxCell id="nQdse4MKbOwxIWMAxmM3-10" value="" style="edgeStyle=orthogonalEdgeStyle;rounded=0;orthogonalLoop=1;jettySize=auto;html=1;" edge="1" parent="1" source="nQdse4MKbOwxIWMAxmM3-7" target="nQdse4MKbOwxIWMAxmM3-9">
          <mxGeometry relative="1" as="geometry" />
        </mxCell>
        <mxCell id="nQdse4MKbOwxIWMAxmM3-122" value="" style="edgeStyle=orthogonalEdgeStyle;rounded=0;orthogonalLoop=1;jettySize=auto;html=1;" edge="1" parent="1" source="nQdse4MKbOwxIWMAxmM3-7" target="nQdse4MKbOwxIWMAxmM3-121">
          <mxGeometry relative="1" as="geometry" />
        </mxCell>
        <mxCell id="nQdse4MKbOwxIWMAxmM3-7" value="조우, 전투" style="whiteSpace=wrap;html=1;" vertex="1" parent="1">
          <mxGeometry x="-134" y="543" width="120" height="35" as="geometry" />
        </mxCell>
        <mxCell id="nQdse4MKbOwxIWMAxmM3-12" value="" style="edgeStyle=orthogonalEdgeStyle;rounded=0;orthogonalLoop=1;jettySize=auto;html=1;" edge="1" parent="1" source="nQdse4MKbOwxIWMAxmM3-9" target="nQdse4MKbOwxIWMAxmM3-11">
          <mxGeometry relative="1" as="geometry" />
        </mxCell>
        <mxCell id="nQdse4MKbOwxIWMAxmM3-9" value="HP -&amp;gt; 0&lt;div&gt;사망처리&lt;/div&gt;" style="whiteSpace=wrap;html=1;" vertex="1" parent="1">
          <mxGeometry x="-134" y="606" width="120" height="60" as="geometry" />
        </mxCell>
        <mxCell id="nQdse4MKbOwxIWMAxmM3-19" value="" style="edgeStyle=orthogonalEdgeStyle;rounded=0;orthogonalLoop=1;jettySize=auto;html=1;" edge="1" parent="1" source="nQdse4MKbOwxIWMAxmM3-11" target="nQdse4MKbOwxIWMAxmM3-18">
          <mxGeometry relative="1" as="geometry" />
        </mxCell>
        <mxCell id="nQdse4MKbOwxIWMAxmM3-23" value="" style="edgeStyle=orthogonalEdgeStyle;rounded=0;orthogonalLoop=1;jettySize=auto;html=1;" edge="1" parent="1" source="nQdse4MKbOwxIWMAxmM3-11" target="nQdse4MKbOwxIWMAxmM3-22">
          <mxGeometry relative="1" as="geometry" />
        </mxCell>
        <mxCell id="nQdse4MKbOwxIWMAxmM3-11" value="아이템 드랍&lt;div&gt;경험치 드랍&lt;/div&gt;" style="whiteSpace=wrap;html=1;" vertex="1" parent="1">
          <mxGeometry x="-353" y="606" width="120" height="60" as="geometry" />
        </mxCell>
        <mxCell id="nQdse4MKbOwxIWMAxmM3-138" value="" style="edgeStyle=orthogonalEdgeStyle;rounded=0;orthogonalLoop=1;jettySize=auto;html=1;" edge="1" parent="1" source="nQdse4MKbOwxIWMAxmM3-13" target="nQdse4MKbOwxIWMAxmM3-137">
          <mxGeometry relative="1" as="geometry" />
        </mxCell>
        <mxCell id="nQdse4MKbOwxIWMAxmM3-13" value="경험치는 플레이어" style="ellipse;whiteSpace=wrap;html=1;" vertex="1" parent="1">
          <mxGeometry x="-213" y="841" width="121" height="80" as="geometry" />
        </mxCell>
        <mxCell id="nQdse4MKbOwxIWMAxmM3-136" value="" style="edgeStyle=orthogonalEdgeStyle;rounded=0;orthogonalLoop=1;jettySize=auto;html=1;" edge="1" parent="1" source="nQdse4MKbOwxIWMAxmM3-15" target="nQdse4MKbOwxIWMAxmM3-135">
          <mxGeometry relative="1" as="geometry" />
        </mxCell>
        <mxCell id="nQdse4MKbOwxIWMAxmM3-15" value="UI&lt;div&gt;드랍요소&lt;/div&gt;&lt;div&gt;띄우기&lt;/div&gt;" style="ellipse;whiteSpace=wrap;html=1;" vertex="1" parent="1">
          <mxGeometry x="-301" y="841" width="80" height="80" as="geometry" />
        </mxCell>
        <mxCell id="nQdse4MKbOwxIWMAxmM3-37" value="" style="edgeStyle=orthogonalEdgeStyle;rounded=0;orthogonalLoop=1;jettySize=auto;html=1;" edge="1" parent="1" source="nQdse4MKbOwxIWMAxmM3-17" target="nQdse4MKbOwxIWMAxmM3-36">
          <mxGeometry relative="1" as="geometry" />
        </mxCell>
        <mxCell id="nQdse4MKbOwxIWMAxmM3-49" value="" style="edgeStyle=orthogonalEdgeStyle;rounded=0;orthogonalLoop=1;jettySize=auto;html=1;" edge="1" parent="1" source="nQdse4MKbOwxIWMAxmM3-17" target="nQdse4MKbOwxIWMAxmM3-48">
          <mxGeometry relative="1" as="geometry">
            <Array as="points">
              <mxPoint x="-446" y="515" />
              <mxPoint x="-780" y="515" />
            </Array>
          </mxGeometry>
        </mxCell>
        <mxCell id="nQdse4MKbOwxIWMAxmM3-51" value="" style="edgeStyle=orthogonalEdgeStyle;rounded=0;orthogonalLoop=1;jettySize=auto;html=1;" edge="1" parent="1" source="nQdse4MKbOwxIWMAxmM3-17" target="nQdse4MKbOwxIWMAxmM3-50">
          <mxGeometry relative="1" as="geometry">
            <Array as="points">
              <mxPoint x="-446" y="449" />
              <mxPoint x="-446" y="514" />
              <mxPoint x="-642" y="514" />
            </Array>
          </mxGeometry>
        </mxCell>
        <mxCell id="nQdse4MKbOwxIWMAxmM3-53" value="" style="edgeStyle=orthogonalEdgeStyle;rounded=0;orthogonalLoop=1;jettySize=auto;html=1;" edge="1" parent="1" source="nQdse4MKbOwxIWMAxmM3-17" target="nQdse4MKbOwxIWMAxmM3-52">
          <mxGeometry relative="1" as="geometry" />
        </mxCell>
        <mxCell id="nQdse4MKbOwxIWMAxmM3-115" style="edgeStyle=orthogonalEdgeStyle;rounded=0;orthogonalLoop=1;jettySize=auto;html=1;exitX=0.5;exitY=0;exitDx=0;exitDy=0;entryX=0.5;entryY=1;entryDx=0;entryDy=0;" edge="1" parent="1" source="nQdse4MKbOwxIWMAxmM3-17" target="nQdse4MKbOwxIWMAxmM3-111">
          <mxGeometry relative="1" as="geometry" />
        </mxCell>
        <mxCell id="nQdse4MKbOwxIWMAxmM3-126" value="" style="edgeStyle=orthogonalEdgeStyle;rounded=0;orthogonalLoop=1;jettySize=auto;html=1;" edge="1" parent="1" source="nQdse4MKbOwxIWMAxmM3-17" target="nQdse4MKbOwxIWMAxmM3-125">
          <mxGeometry relative="1" as="geometry">
            <Array as="points">
              <mxPoint x="-306" y="510" />
              <mxPoint x="-917" y="510" />
            </Array>
          </mxGeometry>
        </mxCell>
        <mxCell id="nQdse4MKbOwxIWMAxmM3-17" value="UI" style="ellipse;whiteSpace=wrap;html=1;" vertex="1" parent="1">
          <mxGeometry x="-366" y="409" width="120" height="80" as="geometry" />
        </mxCell>
        <mxCell id="nQdse4MKbOwxIWMAxmM3-20" style="edgeStyle=orthogonalEdgeStyle;rounded=0;orthogonalLoop=1;jettySize=auto;html=1;exitX=0.5;exitY=1;exitDx=0;exitDy=0;" edge="1" parent="1" source="nQdse4MKbOwxIWMAxmM3-18" target="nQdse4MKbOwxIWMAxmM3-13">
          <mxGeometry relative="1" as="geometry" />
        </mxCell>
        <mxCell id="nQdse4MKbOwxIWMAxmM3-21" style="edgeStyle=orthogonalEdgeStyle;rounded=0;orthogonalLoop=1;jettySize=auto;html=1;exitX=0.5;exitY=1;exitDx=0;exitDy=0;entryX=0.5;entryY=0;entryDx=0;entryDy=0;" edge="1" parent="1" source="nQdse4MKbOwxIWMAxmM3-18" target="nQdse4MKbOwxIWMAxmM3-15">
          <mxGeometry relative="1" as="geometry" />
        </mxCell>
        <mxCell id="nQdse4MKbOwxIWMAxmM3-18" value="시스템" style="ellipse;whiteSpace=wrap;html=1;" vertex="1" parent="1">
          <mxGeometry x="-249" y="709" width="80" height="80" as="geometry" />
        </mxCell>
        <mxCell id="nQdse4MKbOwxIWMAxmM3-25" value="" style="edgeStyle=orthogonalEdgeStyle;rounded=0;orthogonalLoop=1;jettySize=auto;html=1;" edge="1" parent="1" source="nQdse4MKbOwxIWMAxmM3-22" target="nQdse4MKbOwxIWMAxmM3-24">
          <mxGeometry relative="1" as="geometry" />
        </mxCell>
        <mxCell id="nQdse4MKbOwxIWMAxmM3-26" value="" style="edgeStyle=orthogonalEdgeStyle;rounded=0;orthogonalLoop=1;jettySize=auto;html=1;" edge="1" parent="1" source="nQdse4MKbOwxIWMAxmM3-22" target="nQdse4MKbOwxIWMAxmM3-24">
          <mxGeometry relative="1" as="geometry" />
        </mxCell>
        <mxCell id="nQdse4MKbOwxIWMAxmM3-28" value="" style="edgeStyle=orthogonalEdgeStyle;rounded=0;orthogonalLoop=1;jettySize=auto;html=1;" edge="1" parent="1" source="nQdse4MKbOwxIWMAxmM3-22" target="nQdse4MKbOwxIWMAxmM3-27">
          <mxGeometry relative="1" as="geometry" />
        </mxCell>
        <mxCell id="nQdse4MKbOwxIWMAxmM3-22" value="아이템 드랍&lt;div&gt;게임오브젝트&lt;/div&gt;&lt;div&gt;생성&lt;/div&gt;" style="whiteSpace=wrap;html=1;" vertex="1" parent="1">
          <mxGeometry x="-499" y="706" width="120" height="60" as="geometry" />
        </mxCell>
        <mxCell id="nQdse4MKbOwxIWMAxmM3-134" value="" style="edgeStyle=orthogonalEdgeStyle;rounded=0;orthogonalLoop=1;jettySize=auto;html=1;" edge="1" parent="1" source="nQdse4MKbOwxIWMAxmM3-24" target="nQdse4MKbOwxIWMAxmM3-133">
          <mxGeometry relative="1" as="geometry" />
        </mxCell>
        <mxCell id="nQdse4MKbOwxIWMAxmM3-24" value="&lt;div&gt;모라(돈)&lt;/div&gt;" style="rhombus;whiteSpace=wrap;html=1;" vertex="1" parent="1">
          <mxGeometry x="-441" y="802" width="80" height="80" as="geometry" />
        </mxCell>
        <mxCell id="nQdse4MKbOwxIWMAxmM3-30" value="" style="edgeStyle=orthogonalEdgeStyle;rounded=0;orthogonalLoop=1;jettySize=auto;html=1;" edge="1" parent="1" source="nQdse4MKbOwxIWMAxmM3-27" target="nQdse4MKbOwxIWMAxmM3-29">
          <mxGeometry relative="1" as="geometry" />
        </mxCell>
        <mxCell id="nQdse4MKbOwxIWMAxmM3-151" value="" style="edgeStyle=orthogonalEdgeStyle;rounded=0;orthogonalLoop=1;jettySize=auto;html=1;" edge="1" parent="1" source="nQdse4MKbOwxIWMAxmM3-27" target="nQdse4MKbOwxIWMAxmM3-150">
          <mxGeometry relative="1" as="geometry" />
        </mxCell>
        <mxCell id="nQdse4MKbOwxIWMAxmM3-27" value="잡템" style="rhombus;whiteSpace=wrap;html=1;" vertex="1" parent="1">
          <mxGeometry x="-534" y="799" width="80" height="80" as="geometry" />
        </mxCell>
        <mxCell id="nQdse4MKbOwxIWMAxmM3-29" value="드랍테이블&lt;div&gt;안되면 랜덤&lt;/div&gt;" style="whiteSpace=wrap;html=1;" vertex="1" parent="1">
          <mxGeometry x="-561" y="899" width="120" height="39" as="geometry" />
        </mxCell>
        <mxCell id="nQdse4MKbOwxIWMAxmM3-31" value="작업 후순위" style="text;strokeColor=none;fillColor=none;align=left;verticalAlign=middle;spacingLeft=4;spacingRight=4;overflow=hidden;points=[[0,0.5],[1,0.5]];portConstraint=eastwest;rotatable=0;whiteSpace=wrap;html=1;" vertex="1" parent="1">
          <mxGeometry x="-486" y="662" width="80" height="30" as="geometry" />
        </mxCell>
        <mxCell id="nQdse4MKbOwxIWMAxmM3-34" value="애니메이션 구현" style="whiteSpace=wrap;html=1;" vertex="1" parent="1">
          <mxGeometry x="45" y="444" width="120" height="60" as="geometry" />
        </mxCell>
        <mxCell id="nQdse4MKbOwxIWMAxmM3-41" value="" style="edgeStyle=orthogonalEdgeStyle;rounded=0;orthogonalLoop=1;jettySize=auto;html=1;" edge="1" parent="1" source="nQdse4MKbOwxIWMAxmM3-36" target="nQdse4MKbOwxIWMAxmM3-40">
          <mxGeometry relative="1" as="geometry" />
        </mxCell>
        <mxCell id="nQdse4MKbOwxIWMAxmM3-47" value="" style="edgeStyle=orthogonalEdgeStyle;rounded=0;orthogonalLoop=1;jettySize=auto;html=1;" edge="1" parent="1" source="nQdse4MKbOwxIWMAxmM3-36" target="nQdse4MKbOwxIWMAxmM3-46">
          <mxGeometry relative="1" as="geometry" />
        </mxCell>
        <mxCell id="nQdse4MKbOwxIWMAxmM3-36" value="크로스플랫폼" style="whiteSpace=wrap;html=1;" vertex="1" parent="1">
          <mxGeometry x="-674" y="419" width="120" height="60" as="geometry" />
        </mxCell>
        <mxCell id="nQdse4MKbOwxIWMAxmM3-43" value="" style="edgeStyle=orthogonalEdgeStyle;rounded=0;orthogonalLoop=1;jettySize=auto;html=1;" edge="1" parent="1" source="nQdse4MKbOwxIWMAxmM3-40" target="nQdse4MKbOwxIWMAxmM3-42">
          <mxGeometry relative="1" as="geometry" />
        </mxCell>
        <mxCell id="nQdse4MKbOwxIWMAxmM3-45" value="" style="edgeStyle=orthogonalEdgeStyle;rounded=0;orthogonalLoop=1;jettySize=auto;html=1;" edge="1" parent="1" source="nQdse4MKbOwxIWMAxmM3-40" target="nQdse4MKbOwxIWMAxmM3-44">
          <mxGeometry relative="1" as="geometry" />
        </mxCell>
        <mxCell id="nQdse4MKbOwxIWMAxmM3-94" value="" style="edgeStyle=orthogonalEdgeStyle;rounded=0;orthogonalLoop=1;jettySize=auto;html=1;" edge="1" parent="1" source="nQdse4MKbOwxIWMAxmM3-40" target="nQdse4MKbOwxIWMAxmM3-93">
          <mxGeometry relative="1" as="geometry" />
        </mxCell>
        <mxCell id="nQdse4MKbOwxIWMAxmM3-40" value="씬나누기" style="whiteSpace=wrap;html=1;" vertex="1" parent="1">
          <mxGeometry x="-674" y="321" width="120" height="60" as="geometry" />
        </mxCell>
        <mxCell id="nQdse4MKbOwxIWMAxmM3-42" value="모바일 씬" style="whiteSpace=wrap;html=1;" vertex="1" parent="1">
          <mxGeometry x="-714" y="223" width="120" height="60" as="geometry" />
        </mxCell>
        <mxCell id="nQdse4MKbOwxIWMAxmM3-44" value="PC씬" style="whiteSpace=wrap;html=1;" vertex="1" parent="1">
          <mxGeometry x="-599" y="223" width="120" height="60" as="geometry" />
        </mxCell>
        <mxCell id="nQdse4MKbOwxIWMAxmM3-46" value="상호작용&lt;div&gt;버튼으로&lt;/div&gt;&lt;div&gt;전부 구현&lt;/div&gt;" style="whiteSpace=wrap;html=1;" vertex="1" parent="1">
          <mxGeometry x="-874" y="419" width="120" height="60" as="geometry" />
        </mxCell>
        <mxCell id="nQdse4MKbOwxIWMAxmM3-48" value="아이템 드랍 UI" style="whiteSpace=wrap;html=1;" vertex="1" parent="1">
          <mxGeometry x="-845" y="578" width="120" height="43" as="geometry" />
        </mxCell>
        <mxCell id="nQdse4MKbOwxIWMAxmM3-50" value="상자 상호작용 UI" style="whiteSpace=wrap;html=1;" vertex="1" parent="1">
          <mxGeometry x="-706" y="569.5" width="120" height="60" as="geometry" />
        </mxCell>
        <mxCell id="nQdse4MKbOwxIWMAxmM3-52" value="활, 캐릭터 바꿀때&lt;div&gt;스킬 이미지변경&lt;/div&gt;" style="whiteSpace=wrap;html=1;" vertex="1" parent="1">
          <mxGeometry x="-565" y="569.5" width="120" height="60" as="geometry" />
        </mxCell>
        <mxCell id="nQdse4MKbOwxIWMAxmM3-56" value="움직일때&lt;div&gt;카메라 방향&lt;/div&gt;" style="whiteSpace=wrap;html=1;" vertex="1" parent="1">
          <mxGeometry x="-117" y="60" width="120" height="60" as="geometry" />
        </mxCell>
        <mxCell id="nQdse4MKbOwxIWMAxmM3-58" value="카메라 줌인/줌아웃" style="rounded=1;whiteSpace=wrap;html=1;" vertex="1" parent="1">
          <mxGeometry x="-114" width="120" height="60" as="geometry" />
        </mxCell>
        <mxCell id="nQdse4MKbOwxIWMAxmM3-63" value="" style="edgeStyle=orthogonalEdgeStyle;rounded=0;orthogonalLoop=1;jettySize=auto;html=1;" edge="1" parent="1" source="nQdse4MKbOwxIWMAxmM3-61" target="nQdse4MKbOwxIWMAxmM3-62">
          <mxGeometry relative="1" as="geometry" />
        </mxCell>
        <mxCell id="nQdse4MKbOwxIWMAxmM3-86" value="" style="edgeStyle=orthogonalEdgeStyle;rounded=0;orthogonalLoop=1;jettySize=auto;html=1;" edge="1" parent="1" source="nQdse4MKbOwxIWMAxmM3-61" target="nQdse4MKbOwxIWMAxmM3-85">
          <mxGeometry relative="1" as="geometry" />
        </mxCell>
        <mxCell id="nQdse4MKbOwxIWMAxmM3-61" value="아이템" style="ellipse;whiteSpace=wrap;html=1;" vertex="1" parent="1">
          <mxGeometry x="-697" y="-20" width="120" height="80" as="geometry" />
        </mxCell>
        <mxCell id="nQdse4MKbOwxIWMAxmM3-75" value="" style="edgeStyle=orthogonalEdgeStyle;rounded=0;orthogonalLoop=1;jettySize=auto;html=1;" edge="1" parent="1" source="nQdse4MKbOwxIWMAxmM3-62" target="nQdse4MKbOwxIWMAxmM3-74">
          <mxGeometry relative="1" as="geometry" />
        </mxCell>
        <mxCell id="nQdse4MKbOwxIWMAxmM3-77" value="" style="edgeStyle=orthogonalEdgeStyle;rounded=0;orthogonalLoop=1;jettySize=auto;html=1;" edge="1" parent="1" source="nQdse4MKbOwxIWMAxmM3-62" target="nQdse4MKbOwxIWMAxmM3-76">
          <mxGeometry relative="1" as="geometry" />
        </mxCell>
        <mxCell id="nQdse4MKbOwxIWMAxmM3-80" value="" style="edgeStyle=orthogonalEdgeStyle;rounded=0;orthogonalLoop=1;jettySize=auto;html=1;" edge="1" parent="1" source="nQdse4MKbOwxIWMAxmM3-62" target="nQdse4MKbOwxIWMAxmM3-79">
          <mxGeometry relative="1" as="geometry">
            <Array as="points">
              <mxPoint x="-528" y="-96" />
            </Array>
          </mxGeometry>
        </mxCell>
        <mxCell id="nQdse4MKbOwxIWMAxmM3-62" value="인벤토리" style="whiteSpace=wrap;html=1;" vertex="1" parent="1">
          <mxGeometry x="-697" y="-126" width="120" height="60" as="geometry" />
        </mxCell>
        <mxCell id="nQdse4MKbOwxIWMAxmM3-82" value="" style="edgeStyle=orthogonalEdgeStyle;rounded=0;orthogonalLoop=1;jettySize=auto;html=1;" edge="1" parent="1" source="nQdse4MKbOwxIWMAxmM3-67" target="nQdse4MKbOwxIWMAxmM3-81">
          <mxGeometry relative="1" as="geometry" />
        </mxCell>
        <mxCell id="nQdse4MKbOwxIWMAxmM3-84" value="" style="edgeStyle=orthogonalEdgeStyle;rounded=0;orthogonalLoop=1;jettySize=auto;html=1;" edge="1" parent="1" source="nQdse4MKbOwxIWMAxmM3-67" target="nQdse4MKbOwxIWMAxmM3-83">
          <mxGeometry relative="1" as="geometry" />
        </mxCell>
        <mxCell id="nQdse4MKbOwxIWMAxmM3-90" value="" style="edgeStyle=orthogonalEdgeStyle;rounded=0;orthogonalLoop=1;jettySize=auto;html=1;" edge="1" parent="1" source="nQdse4MKbOwxIWMAxmM3-67" target="nQdse4MKbOwxIWMAxmM3-89">
          <mxGeometry relative="1" as="geometry" />
        </mxCell>
        <mxCell id="nQdse4MKbOwxIWMAxmM3-92" value="" style="edgeStyle=orthogonalEdgeStyle;rounded=0;orthogonalLoop=1;jettySize=auto;html=1;" edge="1" parent="1" source="nQdse4MKbOwxIWMAxmM3-67" target="nQdse4MKbOwxIWMAxmM3-91">
          <mxGeometry relative="1" as="geometry" />
        </mxCell>
        <mxCell id="nQdse4MKbOwxIWMAxmM3-67" value="캐릭터 정보창" style="whiteSpace=wrap;html=1;" vertex="1" parent="1">
          <mxGeometry x="-390" y="-4" width="120" height="60" as="geometry" />
        </mxCell>
        <mxCell id="nQdse4MKbOwxIWMAxmM3-74" value="무기" style="whiteSpace=wrap;html=1;" vertex="1" parent="1">
          <mxGeometry x="-830" y="-235" width="120" height="60" as="geometry" />
        </mxCell>
        <mxCell id="nQdse4MKbOwxIWMAxmM3-76" value="성유물" style="whiteSpace=wrap;html=1;" vertex="1" parent="1">
          <mxGeometry x="-697" y="-235" width="120" height="60" as="geometry" />
        </mxCell>
        <mxCell id="nQdse4MKbOwxIWMAxmM3-79" value="기타템" style="whiteSpace=wrap;html=1;" vertex="1" parent="1">
          <mxGeometry x="-570" y="-235" width="120" height="60" as="geometry" />
        </mxCell>
        <mxCell id="nQdse4MKbOwxIWMAxmM3-81" value="무기 장착" style="whiteSpace=wrap;html=1;" vertex="1" parent="1">
          <mxGeometry x="-390" y="-107" width="120" height="60" as="geometry" />
        </mxCell>
        <mxCell id="nQdse4MKbOwxIWMAxmM3-83" value="장비 해제" style="whiteSpace=wrap;html=1;" vertex="1" parent="1">
          <mxGeometry x="-537" y="-4" width="120" height="60" as="geometry" />
        </mxCell>
        <mxCell id="nQdse4MKbOwxIWMAxmM3-88" value="" style="edgeStyle=orthogonalEdgeStyle;rounded=0;orthogonalLoop=1;jettySize=auto;html=1;" edge="1" parent="1" source="nQdse4MKbOwxIWMAxmM3-85" target="nQdse4MKbOwxIWMAxmM3-87">
          <mxGeometry relative="1" as="geometry" />
        </mxCell>
        <mxCell id="nQdse4MKbOwxIWMAxmM3-85" value="데이터 베이스" style="whiteSpace=wrap;html=1;" vertex="1" parent="1">
          <mxGeometry x="-697" y="88" width="120" height="60" as="geometry" />
        </mxCell>
        <mxCell id="nQdse4MKbOwxIWMAxmM3-87" value="메소드 만들면 호출" style="whiteSpace=wrap;html=1;" vertex="1" parent="1">
          <mxGeometry x="-897" y="88" width="120" height="60" as="geometry" />
        </mxCell>
        <mxCell id="nQdse4MKbOwxIWMAxmM3-89" value="성유물 장착" style="whiteSpace=wrap;html=1;" vertex="1" parent="1">
          <mxGeometry x="-270" y="-107" width="120" height="60" as="geometry" />
        </mxCell>
        <mxCell id="nQdse4MKbOwxIWMAxmM3-91" value="레벨업" style="whiteSpace=wrap;html=1;" vertex="1" parent="1">
          <mxGeometry x="-510" y="-107" width="120" height="60" as="geometry" />
        </mxCell>
        <mxCell id="nQdse4MKbOwxIWMAxmM3-93" value="메인메뉴&lt;div&gt;문열리는거&lt;/div&gt;&lt;div&gt;씬&lt;/div&gt;" style="whiteSpace=wrap;html=1;" vertex="1" parent="1">
          <mxGeometry x="-865" y="264" width="120" height="60" as="geometry" />
        </mxCell>
        <mxCell id="nQdse4MKbOwxIWMAxmM3-98" value="" style="edgeStyle=orthogonalEdgeStyle;rounded=0;orthogonalLoop=1;jettySize=auto;html=1;" edge="1" parent="1" source="nQdse4MKbOwxIWMAxmM3-95" target="nQdse4MKbOwxIWMAxmM3-97">
          <mxGeometry relative="1" as="geometry" />
        </mxCell>
        <mxCell id="nQdse4MKbOwxIWMAxmM3-99" value="" style="edgeStyle=orthogonalEdgeStyle;rounded=0;orthogonalLoop=1;jettySize=auto;html=1;" edge="1" parent="1" source="nQdse4MKbOwxIWMAxmM3-95" target="nQdse4MKbOwxIWMAxmM3-97">
          <mxGeometry relative="1" as="geometry" />
        </mxCell>
        <mxCell id="nQdse4MKbOwxIWMAxmM3-101" value="" style="edgeStyle=orthogonalEdgeStyle;rounded=0;orthogonalLoop=1;jettySize=auto;html=1;" edge="1" parent="1" source="nQdse4MKbOwxIWMAxmM3-95" target="nQdse4MKbOwxIWMAxmM3-100">
          <mxGeometry relative="1" as="geometry" />
        </mxCell>
        <mxCell id="nQdse4MKbOwxIWMAxmM3-95" value="캐릭터 애니메이션" style="whiteSpace=wrap;html=1;" vertex="1" parent="1">
          <mxGeometry x="22" y="-102" width="120" height="60" as="geometry" />
        </mxCell>
        <mxCell id="nQdse4MKbOwxIWMAxmM3-97" value="걷기,달리기" style="whiteSpace=wrap;html=1;" vertex="1" parent="1">
          <mxGeometry x="200" y="-167" width="120" height="60" as="geometry" />
        </mxCell>
        <mxCell id="nQdse4MKbOwxIWMAxmM3-100" value="등반하기, 할강" style="whiteSpace=wrap;html=1;" vertex="1" parent="1">
          <mxGeometry x="182" y="-33" width="121" height="61" as="geometry" />
        </mxCell>
        <mxCell id="nQdse4MKbOwxIWMAxmM3-112" value="" style="edgeStyle=orthogonalEdgeStyle;rounded=0;orthogonalLoop=1;jettySize=auto;html=1;" edge="1" parent="1" source="nQdse4MKbOwxIWMAxmM3-104" target="nQdse4MKbOwxIWMAxmM3-111">
          <mxGeometry relative="1" as="geometry" />
        </mxCell>
        <mxCell id="nQdse4MKbOwxIWMAxmM3-104" value="맵" style="whiteSpace=wrap;html=1;" vertex="1" parent="1">
          <mxGeometry x="-349" y="267" width="77" height="44" as="geometry" />
        </mxCell>
        <mxCell id="nQdse4MKbOwxIWMAxmM3-110" style="edgeStyle=orthogonalEdgeStyle;rounded=0;orthogonalLoop=1;jettySize=auto;html=1;exitX=0.5;exitY=0;exitDx=0;exitDy=0;entryX=1;entryY=0.5;entryDx=0;entryDy=0;" edge="1" parent="1" source="nQdse4MKbOwxIWMAxmM3-107" target="nQdse4MKbOwxIWMAxmM3-1">
          <mxGeometry relative="1" as="geometry" />
        </mxCell>
        <mxCell id="nQdse4MKbOwxIWMAxmM3-107" value="스킬" style="whiteSpace=wrap;html=1;" vertex="1" parent="1">
          <mxGeometry x="168" y="198" width="120" height="60" as="geometry" />
        </mxCell>
        <mxCell id="nQdse4MKbOwxIWMAxmM3-109" value="" style="edgeStyle=orthogonalEdgeStyle;rounded=0;orthogonalLoop=1;jettySize=auto;html=1;" edge="1" parent="1" source="nQdse4MKbOwxIWMAxmM3-1" target="nQdse4MKbOwxIWMAxmM3-54">
          <mxGeometry relative="1" as="geometry">
            <mxPoint x="-174" y="179" as="sourcePoint" />
            <mxPoint x="157" y="198" as="targetPoint" />
          </mxGeometry>
        </mxCell>
        <mxCell id="nQdse4MKbOwxIWMAxmM3-54" value="카메라 시점전환" style="whiteSpace=wrap;html=1;" vertex="1" parent="1">
          <mxGeometry x="-117" y="113" width="120" height="60" as="geometry" />
        </mxCell>
        <mxCell id="nQdse4MKbOwxIWMAxmM3-111" value="미니맵" style="whiteSpace=wrap;html=1;" vertex="1" parent="1">
          <mxGeometry x="-459" y="275" width="69" height="28" as="geometry" />
        </mxCell>
        <mxCell id="nQdse4MKbOwxIWMAxmM3-119" value="" style="edgeStyle=orthogonalEdgeStyle;rounded=0;orthogonalLoop=1;jettySize=auto;html=1;" edge="1" parent="1" source="nQdse4MKbOwxIWMAxmM3-116" target="nQdse4MKbOwxIWMAxmM3-118">
          <mxGeometry relative="1" as="geometry" />
        </mxCell>
        <mxCell id="nQdse4MKbOwxIWMAxmM3-116" value="원소 스킬&lt;div&gt;원소 폭발&lt;/div&gt;" style="whiteSpace=wrap;html=1;" vertex="1" parent="1">
          <mxGeometry x="-140" y="-162" width="120" height="60" as="geometry" />
        </mxCell>
        <mxCell id="nQdse4MKbOwxIWMAxmM3-118" value="원소 에너지" style="whiteSpace=wrap;html=1;" vertex="1" parent="1">
          <mxGeometry x="-140" y="-286" width="120" height="60" as="geometry" />
        </mxCell>
        <mxCell id="nQdse4MKbOwxIWMAxmM3-140" value="" style="edgeStyle=orthogonalEdgeStyle;rounded=0;orthogonalLoop=1;jettySize=auto;html=1;" edge="1" parent="1" source="nQdse4MKbOwxIWMAxmM3-121" target="nQdse4MKbOwxIWMAxmM3-139">
          <mxGeometry relative="1" as="geometry" />
        </mxCell>
        <mxCell id="nQdse4MKbOwxIWMAxmM3-142" value="" style="edgeStyle=orthogonalEdgeStyle;rounded=0;orthogonalLoop=1;jettySize=auto;html=1;" edge="1" parent="1" source="nQdse4MKbOwxIWMAxmM3-121" target="nQdse4MKbOwxIWMAxmM3-141">
          <mxGeometry relative="1" as="geometry" />
        </mxCell>
        <mxCell id="nQdse4MKbOwxIWMAxmM3-121" value="피격 시&lt;div&gt;원소 에너지 드랍&lt;/div&gt;" style="whiteSpace=wrap;html=1;" vertex="1" parent="1">
          <mxGeometry x="98" y="589" width="120" height="60" as="geometry" />
        </mxCell>
        <mxCell id="nQdse4MKbOwxIWMAxmM3-125" value="스킬 차는거&lt;div&gt;쿨타임 숫자&lt;/div&gt;" style="rounded=0;whiteSpace=wrap;html=1;" vertex="1" parent="1">
          <mxGeometry x="-963" y="578" width="79" height="56" as="geometry" />
        </mxCell>
        <mxCell id="nQdse4MKbOwxIWMAxmM3-130" value="" style="edgeStyle=orthogonalEdgeStyle;rounded=0;orthogonalLoop=1;jettySize=auto;html=1;" edge="1" parent="1" source="nQdse4MKbOwxIWMAxmM3-127" target="nQdse4MKbOwxIWMAxmM3-129">
          <mxGeometry relative="1" as="geometry" />
        </mxCell>
        <mxCell id="nQdse4MKbOwxIWMAxmM3-127" value="상자, 아이템" style="whiteSpace=wrap;html=1;" vertex="1" parent="1">
          <mxGeometry x="80" y="314" width="120" height="60" as="geometry" />
        </mxCell>
        <mxCell id="nQdse4MKbOwxIWMAxmM3-129" value="인터페이스&lt;div&gt;상호작용 가능함&lt;/div&gt;&lt;div&gt;(IInteractable)&lt;/div&gt;" style="whiteSpace=wrap;html=1;" vertex="1" parent="1">
          <mxGeometry x="280" y="314" width="120" height="60" as="geometry" />
        </mxCell>
        <mxCell id="nQdse4MKbOwxIWMAxmM3-132" value="사운드&lt;div&gt;나중에 작업&lt;/div&gt;&lt;div&gt;플레이어 끝나고&lt;/div&gt;" style="rounded=0;whiteSpace=wrap;html=1;dashed=1;" vertex="1" parent="1">
          <mxGeometry x="-45" y="198" width="120" height="60" as="geometry" />
        </mxCell>
        <mxCell id="nQdse4MKbOwxIWMAxmM3-133" value="데이터로만 처리&lt;div&gt;오브젝트 드랍x&lt;/div&gt;" style="whiteSpace=wrap;html=1;" vertex="1" parent="1">
          <mxGeometry x="-429" y="901" width="95" height="33" as="geometry" />
        </mxCell>
        <mxCell id="nQdse4MKbOwxIWMAxmM3-135" value="F 뭐 나왔음" style="rhombus;whiteSpace=wrap;html=1;" vertex="1" parent="1">
          <mxGeometry x="-301" y="949" width="80" height="80" as="geometry" />
        </mxCell>
        <mxCell id="nQdse4MKbOwxIWMAxmM3-137" value="플레이어나&lt;div&gt;매니저에&lt;/div&gt;&lt;div&gt;쏘기&lt;/div&gt;" style="rhombus;whiteSpace=wrap;html=1;" vertex="1" parent="1">
          <mxGeometry x="-188" y="954" width="80" height="80" as="geometry" />
        </mxCell>
        <mxCell id="nQdse4MKbOwxIWMAxmM3-146" value="" style="edgeStyle=orthogonalEdgeStyle;rounded=0;orthogonalLoop=1;jettySize=auto;html=1;" edge="1" parent="1" source="nQdse4MKbOwxIWMAxmM3-139" target="nQdse4MKbOwxIWMAxmM3-145">
          <mxGeometry relative="1" as="geometry" />
        </mxCell>
        <mxCell id="nQdse4MKbOwxIWMAxmM3-139" value="원소스킬 공격&lt;div&gt;-&amp;gt; 플레이어&lt;/div&gt;" style="rhombus;whiteSpace=wrap;html=1;" vertex="1" parent="1">
          <mxGeometry x="42" y="701" width="103" height="103" as="geometry" />
        </mxCell>
        <mxCell id="nQdse4MKbOwxIWMAxmM3-144" value="" style="edgeStyle=orthogonalEdgeStyle;rounded=0;orthogonalLoop=1;jettySize=auto;html=1;" edge="1" parent="1" source="nQdse4MKbOwxIWMAxmM3-141" target="nQdse4MKbOwxIWMAxmM3-143">
          <mxGeometry relative="1" as="geometry" />
        </mxCell>
        <mxCell id="nQdse4MKbOwxIWMAxmM3-141" value="사망했을 때&lt;div&gt;-&amp;gt; 적&lt;/div&gt;" style="rhombus;whiteSpace=wrap;html=1;" vertex="1" parent="1">
          <mxGeometry x="185" y="701" width="80" height="80" as="geometry" />
        </mxCell>
        <mxCell id="nQdse4MKbOwxIWMAxmM3-143" value="드랍 가능한&lt;div&gt;오브젝트&lt;/div&gt;&lt;div&gt;생성&lt;/div&gt;&lt;div&gt;(자석)&lt;/div&gt;" style="rhombus;whiteSpace=wrap;html=1;" vertex="1" parent="1">
          <mxGeometry x="157" y="846" width="136" height="142" as="geometry" />
        </mxCell>
        <mxCell id="nQdse4MKbOwxIWMAxmM3-145" value="플레이어&lt;div&gt;몸에서&amp;nbsp;&lt;span style=&quot;background-color: initial;&quot;&gt;생성&lt;/span&gt;&lt;/div&gt;" style="rhombus;whiteSpace=wrap;html=1;" vertex="1" parent="1">
          <mxGeometry x="21" y="850" width="145" height="143.5" as="geometry" />
        </mxCell>
        <mxCell id="nQdse4MKbOwxIWMAxmM3-149" value="작업 후순위" style="text;strokeColor=none;fillColor=none;align=left;verticalAlign=middle;spacingLeft=4;spacingRight=4;overflow=hidden;points=[[0,0.5],[1,0.5]];portConstraint=eastwest;rotatable=0;whiteSpace=wrap;html=1;" vertex="1" parent="1">
          <mxGeometry x="122" y="984" width="80" height="30" as="geometry" />
        </mxCell>
        <mxCell id="nQdse4MKbOwxIWMAxmM3-150" value="Tag&lt;div&gt;Interactable&lt;/div&gt;" style="rhombus;whiteSpace=wrap;html=1;" vertex="1" parent="1">
          <mxGeometry x="-694" y="799" width="80" height="80" as="geometry" />
        </mxCell>
        <mxCell id="nQdse4MKbOwxIWMAxmM3-154" style="edgeStyle=orthogonalEdgeStyle;rounded=0;orthogonalLoop=1;jettySize=auto;html=1;exitX=0;exitY=0.5;exitDx=0;exitDy=0;entryX=1;entryY=0.5;entryDx=0;entryDy=0;" edge="1" parent="1" source="nQdse4MKbOwxIWMAxmM3-153" target="nQdse4MKbOwxIWMAxmM3-3">
          <mxGeometry relative="1" as="geometry">
            <Array as="points">
              <mxPoint x="222" y="414" />
            </Array>
          </mxGeometry>
        </mxCell>
        <mxCell id="nQdse4MKbOwxIWMAxmM3-153" value="layer&lt;div&gt;Monster&lt;/div&gt;" style="whiteSpace=wrap;html=1;aspect=fixed;" vertex="1" parent="1">
          <mxGeometry x="200" y="391" width="77" height="77" as="geometry" />
        </mxCell>
        <mxCell id="nQdse4MKbOwxIWMAxmM3-161" value="Panel&lt;div&gt;&lt;br&gt;&lt;/div&gt;" style="swimlane;fontStyle=0;childLayout=stackLayout;horizontal=1;startSize=26;fillColor=none;horizontalStack=0;resizeParent=1;resizeParentMax=0;resizeLast=0;collapsible=1;marginBottom=0;whiteSpace=wrap;html=1;" vertex="1" parent="1">
          <mxGeometry x="-867" y="675" width="140" height="153" as="geometry" />
        </mxCell>
        <mxCell id="nQdse4MKbOwxIWMAxmM3-162" value="CharacterPanel" style="text;strokeColor=none;fillColor=none;align=left;verticalAlign=top;spacingLeft=4;spacingRight=4;overflow=hidden;rotatable=0;points=[[0,0.5],[1,0.5]];portConstraint=eastwest;whiteSpace=wrap;html=1;" vertex="1" parent="nQdse4MKbOwxIWMAxmM3-161">
          <mxGeometry y="26" width="140" height="26" as="geometry" />
        </mxCell>
        <mxCell id="nQdse4MKbOwxIWMAxmM3-163" value="InventoryPanel" style="text;strokeColor=none;fillColor=none;align=left;verticalAlign=top;spacingLeft=4;spacingRight=4;overflow=hidden;rotatable=0;points=[[0,0.5],[1,0.5]];portConstraint=eastwest;whiteSpace=wrap;html=1;" vertex="1" parent="nQdse4MKbOwxIWMAxmM3-161">
          <mxGeometry y="52" width="140" height="26" as="geometry" />
        </mxCell>
        <mxCell id="nQdse4MKbOwxIWMAxmM3-164" value="MinimapPanel" style="text;strokeColor=none;fillColor=none;align=left;verticalAlign=top;spacingLeft=4;spacingRight=4;overflow=hidden;rotatable=0;points=[[0,0.5],[1,0.5]];portConstraint=eastwest;whiteSpace=wrap;html=1;" vertex="1" parent="nQdse4MKbOwxIWMAxmM3-161">
          <mxGeometry y="78" width="140" height="25" as="geometry" />
        </mxCell>
        <mxCell id="nQdse4MKbOwxIWMAxmM3-166" value="SkillPanel" style="text;strokeColor=none;fillColor=none;align=left;verticalAlign=top;spacingLeft=4;spacingRight=4;overflow=hidden;rotatable=0;points=[[0,0.5],[1,0.5]];portConstraint=eastwest;whiteSpace=wrap;html=1;" vertex="1" parent="nQdse4MKbOwxIWMAxmM3-161">
          <mxGeometry y="103" width="140" height="25" as="geometry" />
        </mxCell>
        <mxCell id="nQdse4MKbOwxIWMAxmM3-167" value="ChangePanel" style="text;strokeColor=none;fillColor=none;align=left;verticalAlign=top;spacingLeft=4;spacingRight=4;overflow=hidden;rotatable=0;points=[[0,0.5],[1,0.5]];portConstraint=eastwest;whiteSpace=wrap;html=1;" vertex="1" parent="nQdse4MKbOwxIWMAxmM3-161">
          <mxGeometry y="128" width="140" height="25" as="geometry" />
        </mxCell>
        <mxCell id="nQdse4MKbOwxIWMAxmM3-173" value="캐릭터 패널" style="swimlane;fontStyle=0;childLayout=stackLayout;horizontal=1;startSize=26;fillColor=none;horizontalStack=0;resizeParent=1;resizeParentMax=0;resizeLast=0;collapsible=1;marginBottom=0;whiteSpace=wrap;html=1;" vertex="1" parent="1">
          <mxGeometry x="-1071" y="649" width="140" height="104" as="geometry" />
        </mxCell>
        <mxCell id="nQdse4MKbOwxIWMAxmM3-174" value="레벨업" style="text;strokeColor=none;fillColor=none;align=left;verticalAlign=top;spacingLeft=4;spacingRight=4;overflow=hidden;rotatable=0;points=[[0,0.5],[1,0.5]];portConstraint=eastwest;whiteSpace=wrap;html=1;" vertex="1" parent="nQdse4MKbOwxIWMAxmM3-173">
          <mxGeometry y="26" width="140" height="26" as="geometry" />
        </mxCell>
        <mxCell id="nQdse4MKbOwxIWMAxmM3-175" value="무기" style="text;strokeColor=none;fillColor=none;align=left;verticalAlign=top;spacingLeft=4;spacingRight=4;overflow=hidden;rotatable=0;points=[[0,0.5],[1,0.5]];portConstraint=eastwest;whiteSpace=wrap;html=1;" vertex="1" parent="nQdse4MKbOwxIWMAxmM3-173">
          <mxGeometry y="52" width="140" height="26" as="geometry" />
        </mxCell>
        <mxCell id="nQdse4MKbOwxIWMAxmM3-176" value="성유물" style="text;strokeColor=none;fillColor=none;align=left;verticalAlign=top;spacingLeft=4;spacingRight=4;overflow=hidden;rotatable=0;points=[[0,0.5],[1,0.5]];portConstraint=eastwest;whiteSpace=wrap;html=1;" vertex="1" parent="nQdse4MKbOwxIWMAxmM3-173">
          <mxGeometry y="78" width="140" height="26" as="geometry" />
        </mxCell>
        <mxCell id="nQdse4MKbOwxIWMAxmM3-179" style="edgeStyle=orthogonalEdgeStyle;rounded=0;orthogonalLoop=1;jettySize=auto;html=1;entryX=0;entryY=0.5;entryDx=0;entryDy=0;" edge="1" parent="1" source="nQdse4MKbOwxIWMAxmM3-175" target="nQdse4MKbOwxIWMAxmM3-162">
          <mxGeometry relative="1" as="geometry" />
        </mxCell>
        <mxCell id="nQdse4MKbOwxIWMAxmM3-183" style="edgeStyle=orthogonalEdgeStyle;rounded=0;orthogonalLoop=1;jettySize=auto;html=1;entryX=0;entryY=0.5;entryDx=0;entryDy=0;" edge="1" parent="1" source="nQdse4MKbOwxIWMAxmM3-182" target="nQdse4MKbOwxIWMAxmM3-175">
          <mxGeometry relative="1" as="geometry" />
        </mxCell>
        <mxCell id="nQdse4MKbOwxIWMAxmM3-184" style="edgeStyle=orthogonalEdgeStyle;rounded=0;orthogonalLoop=1;jettySize=auto;html=1;exitX=1;exitY=0.5;exitDx=0;exitDy=0;entryX=0;entryY=0.5;entryDx=0;entryDy=0;" edge="1" parent="1" source="nQdse4MKbOwxIWMAxmM3-182" target="nQdse4MKbOwxIWMAxmM3-176">
          <mxGeometry relative="1" as="geometry" />
        </mxCell>
        <mxCell id="nQdse4MKbOwxIWMAxmM3-182" value="«성유물,무기 패널»&lt;br&gt;&lt;b&gt;교체가능&lt;/b&gt;" style="html=1;whiteSpace=wrap;" vertex="1" parent="1">
          <mxGeometry x="-1287" y="701" width="110" height="50" as="geometry" />
        </mxCell>
        <mxCell id="nQdse4MKbOwxIWMAxmM3-185" value="인벤토리" style="swimlane;fontStyle=0;childLayout=stackLayout;horizontal=1;startSize=26;fillColor=none;horizontalStack=0;resizeParent=1;resizeParentMax=0;resizeLast=0;collapsible=1;marginBottom=0;whiteSpace=wrap;html=1;" vertex="1" parent="1">
          <mxGeometry x="-1071" y="760" width="140" height="104" as="geometry" />
        </mxCell>
        <mxCell id="nQdse4MKbOwxIWMAxmM3-186" value="무기" style="text;strokeColor=none;fillColor=none;align=left;verticalAlign=top;spacingLeft=4;spacingRight=4;overflow=hidden;rotatable=0;points=[[0,0.5],[1,0.5]];portConstraint=eastwest;whiteSpace=wrap;html=1;" vertex="1" parent="nQdse4MKbOwxIWMAxmM3-185">
          <mxGeometry y="26" width="140" height="26" as="geometry" />
        </mxCell>
        <mxCell id="nQdse4MKbOwxIWMAxmM3-187" value="성유물" style="text;strokeColor=none;fillColor=none;align=left;verticalAlign=top;spacingLeft=4;spacingRight=4;overflow=hidden;rotatable=0;points=[[0,0.5],[1,0.5]];portConstraint=eastwest;whiteSpace=wrap;html=1;" vertex="1" parent="nQdse4MKbOwxIWMAxmM3-185">
          <mxGeometry y="52" width="140" height="26" as="geometry" />
        </mxCell>
        <mxCell id="nQdse4MKbOwxIWMAxmM3-188" value="잡템" style="text;strokeColor=none;fillColor=none;align=left;verticalAlign=top;spacingLeft=4;spacingRight=4;overflow=hidden;rotatable=0;points=[[0,0.5],[1,0.5]];portConstraint=eastwest;whiteSpace=wrap;html=1;" vertex="1" parent="nQdse4MKbOwxIWMAxmM3-185">
          <mxGeometry y="78" width="140" height="26" as="geometry" />
        </mxCell>
        <mxCell id="nQdse4MKbOwxIWMAxmM3-189" style="edgeStyle=orthogonalEdgeStyle;rounded=0;orthogonalLoop=1;jettySize=auto;html=1;exitX=1;exitY=0.5;exitDx=0;exitDy=0;entryX=0;entryY=0.5;entryDx=0;entryDy=0;" edge="1" parent="1" source="nQdse4MKbOwxIWMAxmM3-187" target="nQdse4MKbOwxIWMAxmM3-163">
          <mxGeometry relative="1" as="geometry" />
        </mxCell>
        <mxCell id="nQdse4MKbOwxIWMAxmM3-190" value="PC" style="swimlane;fontStyle=0;childLayout=stackLayout;horizontal=1;startSize=26;fillColor=none;horizontalStack=0;resizeParent=1;resizeParentMax=0;resizeLast=0;collapsible=1;marginBottom=0;whiteSpace=wrap;html=1;" vertex="1" parent="1">
          <mxGeometry x="-1075" y="891" width="140" height="78" as="geometry" />
        </mxCell>
        <mxCell id="nQdse4MKbOwxIWMAxmM3-196" value="원소스킬" style="text;strokeColor=none;fillColor=none;align=left;verticalAlign=top;spacingLeft=4;spacingRight=4;overflow=hidden;rotatable=0;points=[[0,0.5],[1,0.5]];portConstraint=eastwest;whiteSpace=wrap;html=1;" vertex="1" parent="nQdse4MKbOwxIWMAxmM3-190">
          <mxGeometry y="26" width="140" height="26" as="geometry" />
        </mxCell>
        <mxCell id="nQdse4MKbOwxIWMAxmM3-191" value="원소폭발" style="text;strokeColor=none;fillColor=none;align=left;verticalAlign=top;spacingLeft=4;spacingRight=4;overflow=hidden;rotatable=0;points=[[0,0.5],[1,0.5]];portConstraint=eastwest;whiteSpace=wrap;html=1;" vertex="1" parent="nQdse4MKbOwxIWMAxmM3-190">
          <mxGeometry y="52" width="140" height="26" as="geometry" />
        </mxCell>
        <mxCell id="nQdse4MKbOwxIWMAxmM3-197" value="모바일" style="swimlane;fontStyle=0;childLayout=stackLayout;horizontal=1;startSize=26;fillColor=none;horizontalStack=0;resizeParent=1;resizeParentMax=0;resizeLast=0;collapsible=1;marginBottom=0;whiteSpace=wrap;html=1;" vertex="1" parent="1">
          <mxGeometry x="-1073" y="988" width="140" height="208" as="geometry" />
        </mxCell>
        <mxCell id="nQdse4MKbOwxIWMAxmM3-198" value="일반공격" style="text;strokeColor=none;fillColor=none;align=left;verticalAlign=top;spacingLeft=4;spacingRight=4;overflow=hidden;rotatable=0;points=[[0,0.5],[1,0.5]];portConstraint=eastwest;whiteSpace=wrap;html=1;" vertex="1" parent="nQdse4MKbOwxIWMAxmM3-197">
          <mxGeometry y="26" width="140" height="26" as="geometry" />
        </mxCell>
        <mxCell id="nQdse4MKbOwxIWMAxmM3-199" value="점프" style="text;strokeColor=none;fillColor=none;align=left;verticalAlign=top;spacingLeft=4;spacingRight=4;overflow=hidden;rotatable=0;points=[[0,0.5],[1,0.5]];portConstraint=eastwest;whiteSpace=wrap;html=1;" vertex="1" parent="nQdse4MKbOwxIWMAxmM3-197">
          <mxGeometry y="52" width="140" height="26" as="geometry" />
        </mxCell>
        <mxCell id="nQdse4MKbOwxIWMAxmM3-200" value="달리기" style="text;strokeColor=none;fillColor=none;align=left;verticalAlign=top;spacingLeft=4;spacingRight=4;overflow=hidden;rotatable=0;points=[[0,0.5],[1,0.5]];portConstraint=eastwest;whiteSpace=wrap;html=1;" vertex="1" parent="nQdse4MKbOwxIWMAxmM3-197">
          <mxGeometry y="78" width="140" height="26" as="geometry" />
        </mxCell>
        <mxCell id="nQdse4MKbOwxIWMAxmM3-201" value="등산하기" style="text;strokeColor=none;fillColor=none;align=left;verticalAlign=top;spacingLeft=4;spacingRight=4;overflow=hidden;rotatable=0;points=[[0,0.5],[1,0.5]];portConstraint=eastwest;whiteSpace=wrap;html=1;" vertex="1" parent="nQdse4MKbOwxIWMAxmM3-197">
          <mxGeometry y="104" width="140" height="26" as="geometry" />
        </mxCell>
        <mxCell id="nQdse4MKbOwxIWMAxmM3-202" value="내려가기" style="text;strokeColor=none;fillColor=none;align=left;verticalAlign=top;spacingLeft=4;spacingRight=4;overflow=hidden;rotatable=0;points=[[0,0.5],[1,0.5]];portConstraint=eastwest;whiteSpace=wrap;html=1;" vertex="1" parent="nQdse4MKbOwxIWMAxmM3-197">
          <mxGeometry y="130" width="140" height="26" as="geometry" />
        </mxCell>
        <mxCell id="nQdse4MKbOwxIWMAxmM3-203" value="날기" style="text;strokeColor=none;fillColor=none;align=left;verticalAlign=top;spacingLeft=4;spacingRight=4;overflow=hidden;rotatable=0;points=[[0,0.5],[1,0.5]];portConstraint=eastwest;whiteSpace=wrap;html=1;" vertex="1" parent="nQdse4MKbOwxIWMAxmM3-197">
          <mxGeometry y="156" width="140" height="26" as="geometry" />
        </mxCell>
        <mxCell id="nQdse4MKbOwxIWMAxmM3-204" value="그만날기" style="text;strokeColor=none;fillColor=none;align=left;verticalAlign=top;spacingLeft=4;spacingRight=4;overflow=hidden;rotatable=0;points=[[0,0.5],[1,0.5]];portConstraint=eastwest;whiteSpace=wrap;html=1;" vertex="1" parent="nQdse4MKbOwxIWMAxmM3-197">
          <mxGeometry y="182" width="140" height="26" as="geometry" />
        </mxCell>
        <mxCell id="nQdse4MKbOwxIWMAxmM3-205" style="edgeStyle=orthogonalEdgeStyle;rounded=0;orthogonalLoop=1;jettySize=auto;html=1;exitX=1;exitY=0.5;exitDx=0;exitDy=0;entryX=0;entryY=0.5;entryDx=0;entryDy=0;" edge="1" parent="1" source="nQdse4MKbOwxIWMAxmM3-196" target="nQdse4MKbOwxIWMAxmM3-166">
          <mxGeometry relative="1" as="geometry">
            <Array as="points">
              <mxPoint x="-881" y="930" />
              <mxPoint x="-881" y="791" />
            </Array>
          </mxGeometry>
        </mxCell>
        <mxCell id="nQdse4MKbOwxIWMAxmM3-207" style="edgeStyle=orthogonalEdgeStyle;rounded=0;orthogonalLoop=1;jettySize=auto;html=1;exitX=1;exitY=0.5;exitDx=0;exitDy=0;entryX=0;entryY=0.5;entryDx=0;entryDy=0;" edge="1" parent="1" source="nQdse4MKbOwxIWMAxmM3-201" target="nQdse4MKbOwxIWMAxmM3-166">
          <mxGeometry relative="1" as="geometry">
            <Array as="points">
              <mxPoint x="-881" y="1105" />
              <mxPoint x="-881" y="791" />
            </Array>
          </mxGeometry>
        </mxCell>
        <mxCell id="nQdse4MKbOwxIWMAxmM3-216" style="edgeStyle=orthogonalEdgeStyle;rounded=0;orthogonalLoop=1;jettySize=auto;html=1;entryX=1;entryY=0.5;entryDx=0;entryDy=0;" edge="1" parent="1" source="nQdse4MKbOwxIWMAxmM3-210" target="nQdse4MKbOwxIWMAxmM3-167">
          <mxGeometry relative="1" as="geometry" />
        </mxCell>
        <mxCell id="nQdse4MKbOwxIWMAxmM3-210" value="캐릭터변경패널" style="swimlane;fontStyle=0;childLayout=stackLayout;horizontal=1;startSize=26;fillColor=none;horizontalStack=0;resizeParent=1;resizeParentMax=0;resizeLast=0;collapsible=1;marginBottom=0;whiteSpace=wrap;html=1;" vertex="1" parent="1">
          <mxGeometry x="-777" y="1047" width="140" height="156" as="geometry" />
        </mxCell>
        <mxCell id="nQdse4MKbOwxIWMAxmM3-211" value="이름" style="text;strokeColor=none;fillColor=none;align=left;verticalAlign=top;spacingLeft=4;spacingRight=4;overflow=hidden;rotatable=0;points=[[0,0.5],[1,0.5]];portConstraint=eastwest;whiteSpace=wrap;html=1;" vertex="1" parent="nQdse4MKbOwxIWMAxmM3-210">
          <mxGeometry y="26" width="140" height="26" as="geometry" />
        </mxCell>
        <mxCell id="nQdse4MKbOwxIWMAxmM3-212" value="체력(Slider)" style="text;strokeColor=none;fillColor=none;align=left;verticalAlign=top;spacingLeft=4;spacingRight=4;overflow=hidden;rotatable=0;points=[[0,0.5],[1,0.5]];portConstraint=eastwest;whiteSpace=wrap;html=1;" vertex="1" parent="nQdse4MKbOwxIWMAxmM3-210">
          <mxGeometry y="52" width="140" height="26" as="geometry" />
        </mxCell>
        <mxCell id="nQdse4MKbOwxIWMAxmM3-213" value="초상화" style="text;strokeColor=none;fillColor=none;align=left;verticalAlign=top;spacingLeft=4;spacingRight=4;overflow=hidden;rotatable=0;points=[[0,0.5],[1,0.5]];portConstraint=eastwest;whiteSpace=wrap;html=1;" vertex="1" parent="nQdse4MKbOwxIWMAxmM3-210">
          <mxGeometry y="78" width="140" height="26" as="geometry" />
        </mxCell>
        <mxCell id="nQdse4MKbOwxIWMAxmM3-214" value="숫자" style="text;strokeColor=none;fillColor=none;align=left;verticalAlign=top;spacingLeft=4;spacingRight=4;overflow=hidden;rotatable=0;points=[[0,0.5],[1,0.5]];portConstraint=eastwest;whiteSpace=wrap;html=1;" vertex="1" parent="nQdse4MKbOwxIWMAxmM3-210">
          <mxGeometry y="104" width="140" height="26" as="geometry" />
        </mxCell>
        <mxCell id="nQdse4MKbOwxIWMAxmM3-217" value="궁극기" style="text;strokeColor=default;fillColor=none;align=left;verticalAlign=top;spacingLeft=4;spacingRight=4;overflow=hidden;rotatable=0;points=[[0,0.5],[1,0.5]];portConstraint=eastwest;whiteSpace=wrap;html=1;dashed=1;" vertex="1" parent="nQdse4MKbOwxIWMAxmM3-210">
          <mxGeometry y="130" width="140" height="26" as="geometry" />
        </mxCell>
        <mxCell id="nQdse4MKbOwxIWMAxmM3-218" value="Weapon&lt;div&gt;Armor1&lt;/div&gt;&lt;div&gt;Armor2&lt;/div&gt;&lt;div&gt;Armor3&lt;/div&gt;&lt;div&gt;Armor4&lt;/div&gt;&lt;div&gt;Armor5&lt;br&gt;&lt;/div&gt;" style="rounded=0;whiteSpace=wrap;html=1;" vertex="1" parent="1">
          <mxGeometry x="46" y="42" width="120" height="96" as="geometry" />
        </mxCell>
        <mxCell id="nQdse4MKbOwxIWMAxmM3-219" value="&lt;div&gt;(int)level&lt;/div&gt;&lt;div&gt;(int)exp&lt;/div&gt;(float)health(+)&lt;div&gt;(float)attack(+weaponAttack)&lt;/div&gt;&lt;div&gt;(float)defence(+)&lt;/div&gt;&lt;div&gt;(float)stamina(max 100)&lt;/div&gt;&lt;div&gt;(float)skillGage&lt;/div&gt;&lt;div&gt;(float)maxSkillGage&lt;/div&gt;" style="rounded=0;whiteSpace=wrap;html=1;" vertex="1" parent="1">
          <mxGeometry x="182" y="42" width="187" height="122" as="geometry" />
        </mxCell>
        <mxCell id="nQdse4MKbOwxIWMAxmM3-220" value="&lt;div&gt;(int)level&lt;/div&gt;(float)health&lt;div&gt;(float)attack(+weaponAttack)&lt;/div&gt;&lt;div&gt;(float)defence&lt;/div&gt;" style="rounded=0;whiteSpace=wrap;html=1;" vertex="1" parent="1">
          <mxGeometry x="268" y="569.5" width="163" height="87" as="geometry" />
        </mxCell>
        <mxCell id="nQdse4MKbOwxIWMAxmM3-224" value="아이템" style="swimlane;fontStyle=0;childLayout=stackLayout;horizontal=1;startSize=30;horizontalStack=0;resizeParent=1;resizeParentMax=0;resizeLast=0;collapsible=1;marginBottom=0;whiteSpace=wrap;html=1;" vertex="1" parent="1">
          <mxGeometry x="-1024" y="-271" width="140" height="240" as="geometry" />
        </mxCell>
        <mxCell id="nQdse4MKbOwxIWMAxmM3-225" value="ID(Enum)" style="text;strokeColor=none;fillColor=none;align=left;verticalAlign=middle;spacingLeft=4;spacingRight=4;overflow=hidden;points=[[0,0.5],[1,0.5]];portConstraint=eastwest;rotatable=0;whiteSpace=wrap;html=1;" vertex="1" parent="nQdse4MKbOwxIWMAxmM3-224">
          <mxGeometry y="30" width="140" height="30" as="geometry" />
        </mxCell>
        <mxCell id="nQdse4MKbOwxIWMAxmM3-233" value="Count" style="text;strokeColor=none;fillColor=none;align=left;verticalAlign=middle;spacingLeft=4;spacingRight=4;overflow=hidden;points=[[0,0.5],[1,0.5]];portConstraint=eastwest;rotatable=0;whiteSpace=wrap;html=1;" vertex="1" parent="nQdse4MKbOwxIWMAxmM3-224">
          <mxGeometry y="60" width="140" height="30" as="geometry" />
        </mxCell>
        <mxCell id="nQdse4MKbOwxIWMAxmM3-235" value="isEquip(bool)" style="text;strokeColor=none;fillColor=none;align=left;verticalAlign=middle;spacingLeft=4;spacingRight=4;overflow=hidden;points=[[0,0.5],[1,0.5]];portConstraint=eastwest;rotatable=0;whiteSpace=wrap;html=1;" vertex="1" parent="nQdse4MKbOwxIWMAxmM3-224">
          <mxGeometry y="90" width="140" height="30" as="geometry" />
        </mxCell>
        <mxCell id="nQdse4MKbOwxIWMAxmM3-236" value="WeaponDamage(0 == 성유물)" style="text;strokeColor=none;fillColor=none;align=left;verticalAlign=middle;spacingLeft=4;spacingRight=4;overflow=hidden;points=[[0,0.5],[1,0.5]];portConstraint=eastwest;rotatable=0;whiteSpace=wrap;html=1;" vertex="1" parent="nQdse4MKbOwxIWMAxmM3-224">
          <mxGeometry y="120" width="140" height="30" as="geometry" />
        </mxCell>
        <mxCell id="nQdse4MKbOwxIWMAxmM3-237" value="DefenceType(enum)" style="text;strokeColor=none;fillColor=none;align=left;verticalAlign=middle;spacingLeft=4;spacingRight=4;overflow=hidden;points=[[0,0.5],[1,0.5]];portConstraint=eastwest;rotatable=0;whiteSpace=wrap;html=1;" vertex="1" parent="nQdse4MKbOwxIWMAxmM3-224">
          <mxGeometry y="150" width="140" height="30" as="geometry" />
        </mxCell>
        <mxCell id="nQdse4MKbOwxIWMAxmM3-238" value="//Main(enum)" style="text;strokeColor=default;fillColor=none;align=left;verticalAlign=middle;spacingLeft=4;spacingRight=4;overflow=hidden;points=[[0,0.5],[1,0.5]];portConstraint=eastwest;rotatable=0;whiteSpace=wrap;html=1;dashed=1;" vertex="1" parent="nQdse4MKbOwxIWMAxmM3-224">
          <mxGeometry y="180" width="140" height="30" as="geometry" />
        </mxCell>
        <mxCell id="nQdse4MKbOwxIWMAxmM3-248" value="Value(float)" style="text;strokeColor=none;fillColor=none;align=left;verticalAlign=middle;spacingLeft=4;spacingRight=4;overflow=hidden;points=[[0,0.5],[1,0.5]];portConstraint=eastwest;rotatable=0;whiteSpace=wrap;html=1;" vertex="1" parent="nQdse4MKbOwxIWMAxmM3-224">
          <mxGeometry y="210" width="140" height="30" as="geometry" />
        </mxCell>
        <mxCell id="nQdse4MKbOwxIWMAxmM3-228" value="모라" style="swimlane;fontStyle=0;childLayout=stackLayout;horizontal=1;startSize=30;horizontalStack=0;resizeParent=1;resizeParentMax=0;resizeLast=0;collapsible=1;marginBottom=0;whiteSpace=wrap;html=1;" vertex="1" parent="1">
          <mxGeometry x="-1002" width="140" height="60" as="geometry" />
        </mxCell>
        <mxCell id="nQdse4MKbOwxIWMAxmM3-229" value="Count" style="text;strokeColor=none;fillColor=none;align=left;verticalAlign=middle;spacingLeft=4;spacingRight=4;overflow=hidden;points=[[0,0.5],[1,0.5]];portConstraint=eastwest;rotatable=0;whiteSpace=wrap;html=1;" vertex="1" parent="nQdse4MKbOwxIWMAxmM3-228">
          <mxGeometry y="30" width="140" height="30" as="geometry" />
        </mxCell>
        <mxCell id="nQdse4MKbOwxIWMAxmM3-239" value="DefenceType" style="swimlane;fontStyle=0;childLayout=stackLayout;horizontal=1;startSize=30;horizontalStack=0;resizeParent=1;resizeParentMax=0;resizeLast=0;collapsible=1;marginBottom=0;whiteSpace=wrap;html=1;" vertex="1" parent="1">
          <mxGeometry x="-1405" y="-286" width="140" height="180" as="geometry" />
        </mxCell>
        <mxCell id="nQdse4MKbOwxIWMAxmM3-240" value="Head" style="text;strokeColor=none;fillColor=none;align=left;verticalAlign=middle;spacingLeft=4;spacingRight=4;overflow=hidden;points=[[0,0.5],[1,0.5]];portConstraint=eastwest;rotatable=0;whiteSpace=wrap;html=1;" vertex="1" parent="nQdse4MKbOwxIWMAxmM3-239">
          <mxGeometry y="30" width="140" height="30" as="geometry" />
        </mxCell>
        <mxCell id="nQdse4MKbOwxIWMAxmM3-241" value="깃털" style="text;strokeColor=none;fillColor=none;align=left;verticalAlign=middle;spacingLeft=4;spacingRight=4;overflow=hidden;points=[[0,0.5],[1,0.5]];portConstraint=eastwest;rotatable=0;whiteSpace=wrap;html=1;" vertex="1" parent="nQdse4MKbOwxIWMAxmM3-239">
          <mxGeometry y="60" width="140" height="30" as="geometry" />
        </mxCell>
        <mxCell id="nQdse4MKbOwxIWMAxmM3-242" value="시계" style="text;strokeColor=none;fillColor=none;align=left;verticalAlign=middle;spacingLeft=4;spacingRight=4;overflow=hidden;points=[[0,0.5],[1,0.5]];portConstraint=eastwest;rotatable=0;whiteSpace=wrap;html=1;" vertex="1" parent="nQdse4MKbOwxIWMAxmM3-239">
          <mxGeometry y="90" width="140" height="30" as="geometry" />
        </mxCell>
        <mxCell id="nQdse4MKbOwxIWMAxmM3-245" value="성배" style="text;strokeColor=none;fillColor=none;align=left;verticalAlign=middle;spacingLeft=4;spacingRight=4;overflow=hidden;points=[[0,0.5],[1,0.5]];portConstraint=eastwest;rotatable=0;whiteSpace=wrap;html=1;" vertex="1" parent="nQdse4MKbOwxIWMAxmM3-239">
          <mxGeometry y="120" width="140" height="30" as="geometry" />
        </mxCell>
        <mxCell id="nQdse4MKbOwxIWMAxmM3-246" value="왕관" style="text;strokeColor=none;fillColor=none;align=left;verticalAlign=middle;spacingLeft=4;spacingRight=4;overflow=hidden;points=[[0,0.5],[1,0.5]];portConstraint=eastwest;rotatable=0;whiteSpace=wrap;html=1;" vertex="1" parent="nQdse4MKbOwxIWMAxmM3-239">
          <mxGeometry y="150" width="140" height="30" as="geometry" />
        </mxCell>
        <mxCell id="nQdse4MKbOwxIWMAxmM3-247" value="" style="edgeStyle=orthogonalEdgeStyle;rounded=0;orthogonalLoop=1;jettySize=auto;html=1;entryX=0;entryY=0.5;entryDx=0;entryDy=0;" edge="1" parent="1" source="nQdse4MKbOwxIWMAxmM3-242" target="nQdse4MKbOwxIWMAxmM3-237">
          <mxGeometry relative="1" as="geometry" />
        </mxCell>
        <mxCell id="nQdse4MKbOwxIWMAxmM3-249" value="List" style="swimlane;fontStyle=0;childLayout=stackLayout;horizontal=1;startSize=30;horizontalStack=0;resizeParent=1;resizeParentMax=0;resizeLast=0;collapsible=1;marginBottom=0;whiteSpace=wrap;html=1;dashed=1;" vertex="1" parent="1">
          <mxGeometry x="-1405" y="-92" width="140" height="120" as="geometry" />
        </mxCell>
        <mxCell id="nQdse4MKbOwxIWMAxmM3-250" value="체퍼" style="text;strokeColor=none;fillColor=none;align=left;verticalAlign=middle;spacingLeft=4;spacingRight=4;overflow=hidden;points=[[0,0.5],[1,0.5]];portConstraint=eastwest;rotatable=0;whiteSpace=wrap;html=1;" vertex="1" parent="nQdse4MKbOwxIWMAxmM3-249">
          <mxGeometry y="30" width="140" height="30" as="geometry" />
        </mxCell>
        <mxCell id="nQdse4MKbOwxIWMAxmM3-251" value="방퍼" style="text;strokeColor=none;fillColor=none;align=left;verticalAlign=middle;spacingLeft=4;spacingRight=4;overflow=hidden;points=[[0,0.5],[1,0.5]];portConstraint=eastwest;rotatable=0;whiteSpace=wrap;html=1;" vertex="1" parent="nQdse4MKbOwxIWMAxmM3-249">
          <mxGeometry y="60" width="140" height="30" as="geometry" />
        </mxCell>
        <mxCell id="nQdse4MKbOwxIWMAxmM3-252" value="공퍼" style="text;strokeColor=none;fillColor=none;align=left;verticalAlign=middle;spacingLeft=4;spacingRight=4;overflow=hidden;points=[[0,0.5],[1,0.5]];portConstraint=eastwest;rotatable=0;whiteSpace=wrap;html=1;" vertex="1" parent="nQdse4MKbOwxIWMAxmM3-249">
          <mxGeometry y="90" width="140" height="30" as="geometry" />
        </mxCell>
        <mxCell id="nQdse4MKbOwxIWMAxmM3-253" style="edgeStyle=orthogonalEdgeStyle;rounded=0;orthogonalLoop=1;jettySize=auto;html=1;exitX=1;exitY=0.5;exitDx=0;exitDy=0;entryX=0;entryY=0.5;entryDx=0;entryDy=0;" edge="1" parent="1" source="nQdse4MKbOwxIWMAxmM3-251" target="nQdse4MKbOwxIWMAxmM3-238">
          <mxGeometry relative="1" as="geometry" />
        </mxCell>
      </root>
    </mxGraphModel>
  </diagram>
</mxfile>
